<svg width="136" height="18" viewBox="0 0 136 18" fill="none" xmlns="http://www.w3.org/2000/svg">
<g clip-path="url(#clip0_3664_46)">
<path d="M46.3385 18.015V-0.0149841H66.6621V7.07808L62.0962 7.01437L66.6621 10.9219V18.015H46.3385ZM58.0824 4.76328H54.8969V7.07808H58.0824V4.76328ZM58.0824 10.8795H54.8969V13.0031H58.0824V10.8795ZM69.3592 18.015V-0.0149841H89.6615V18.015H69.3592ZM112.406 7.07808H101.087V4.76328H112.427H112.852L112.809 -0.0149841H92.5072V10.6883H104.272V10.8795V13.0031H92.5284V18.015H112.831V13.0031L112.852 7.07808H112.406ZM135.575 7.07808H124.256V4.76328H135.575H136L135.979 -0.0149841H115.676V10.6883H127.42V10.8795V13.0031H115.676V18.015H135.979V13.0031L136 7.07808H135.575ZM38.2261 -0.0149841L34.9132 3.74392L33.3204 5.54904L31.7277 3.74392L28.4147 -0.0149841H23.1693V18.015H31.7277V9.54154L33.3204 11.3467L34.9132 9.54154V18.015H43.4716V-0.0149841H38.2261ZM11.7439 18.015V13.0031H8.5584V18.015H0V-0.0149841H20.3235V18.015H11.7439ZM11.7439 5.95254H8.5584V9.58402H11.7439V5.95254Z" fill="url(#paint0_linear_3664_46)"/>
</g>
<defs>
<linearGradient id="paint0_linear_3664_46" x1="5.0664e-07" y1="9.00001" x2="136" y2="9.00001" gradientUnits="userSpaceOnUse">
<stop stop-color="#7928CA"/>
<stop offset="1" stop-color="#FF0080"/>
</linearGradient>
<clipPath id="clip0_3664_46">
<rect width="136" height="17.68" fill="white" transform="translate(0 0.160004)"/>
</clipPath>
</defs>
</svg>
